# Blender v2.91.0 OBJ File: ''
# www.blender.org
mtllib four.mtl
o Blue_Team__Text
v 0.551200 0.174000 0.100000
v 0.551200 0.267000 0.100000
v 0.794200 0.267000 0.100000
v 0.794200 0.174000 0.100000
v 0.471000 0.312000 0.100000
v 0.471000 0.224000 0.100000
v 0.398000 0.224000 0.100000
v 0.398000 -0.000000 0.100000
v 0.300000 -0.000000 0.100000
v 0.300000 0.224000 0.100000
v 0.011000 0.224000 0.100000
v 0.011000 0.269000 0.100000
v 0.356000 0.691000 0.100000
v 0.398000 0.691000 0.100000
v 0.398000 0.312000 0.100000
v 0.300000 0.312000 0.100000
v 0.300000 0.506000 0.100000
v 0.298000 0.506000 0.100000
v 0.142000 0.312000 0.100000
v 0.551200 0.174000 -0.100000
v 0.551200 0.267000 -0.100000
v 0.794200 0.267000 -0.100000
v 0.794200 0.174000 -0.100000
v 0.471000 0.312000 -0.100000
v 0.471000 0.224000 -0.100000
v 0.398000 0.224000 -0.100000
v 0.398000 0.000000 -0.100000
v 0.300000 0.000000 -0.100000
v 0.300000 0.224000 -0.100000
v 0.011000 0.224000 -0.100000
v 0.011000 0.269000 -0.100000
v 0.356000 0.691000 -0.100000
v 0.398000 0.691000 -0.100000
v 0.398000 0.312000 -0.100000
v 0.300000 0.312000 -0.100000
v 0.300000 0.506000 -0.100000
v 0.298000 0.506000 -0.100000
v 0.142000 0.312000 -0.100000
v 0.471000 0.312000 -0.100000
v 0.471000 0.312000 0.100000
v 0.471000 0.224000 -0.100000
v 0.471000 0.224000 0.100000
v 0.398000 0.224000 -0.100000
v 0.398000 0.224000 0.100000
v 0.398000 0.000000 -0.100000
v 0.398000 -0.000000 0.100000
v 0.300000 0.000000 -0.100000
v 0.300000 -0.000000 0.100000
v 0.300000 0.224000 -0.100000
v 0.300000 0.224000 0.100000
v 0.011000 0.224000 -0.100000
v 0.011000 0.224000 0.100000
v 0.011000 0.269000 -0.100000
v 0.011000 0.269000 0.100000
v 0.356000 0.691000 -0.100000
v 0.356000 0.691000 0.100000
v 0.398000 0.691000 -0.100000
v 0.398000 0.691000 0.100000
v 0.398000 0.312000 -0.100000
v 0.398000 0.312000 0.100000
v 0.300000 0.312000 -0.100000
v 0.300000 0.312000 0.100000
v 0.300000 0.506000 -0.100000
v 0.300000 0.506000 0.100000
v 0.298000 0.506000 -0.100000
v 0.298000 0.506000 0.100000
v 0.142000 0.312000 -0.100000
v 0.142000 0.312000 0.100000
v 0.551200 0.174000 -0.100000
v 0.551200 0.174000 0.100000
v 0.551200 0.267000 -0.100000
v 0.551200 0.267000 0.100000
v 0.794200 0.267000 -0.100000
v 0.794200 0.267000 0.100000
v 0.794200 0.174000 -0.100000
v 0.794200 0.174000 0.100000
vt 0.000000 0.000000
vt 0.666667 0.000000
vt 0.333333 0.000000
vt 1.000000 0.000000
vt 0.500000 0.000000
vt 0.642857 0.000000
vt 0.571429 0.000000
vt 0.928571 0.000000
vt 0.857143 0.000000
vt 0.714286 0.000000
vt 1.000000 0.000000
vt 0.785714 0.000000
vt 0.000000 0.000000
vt 0.071429 0.000000
vt 0.428571 0.000000
vt 0.357143 0.000000
vt 0.285714 0.000000
vt 0.142857 0.000000
vt 0.214286 0.000000
vt 0.666667 0.000000
vt 0.000000 0.000000
vt 0.333333 0.000000
vt 1.000000 0.000000
vt 0.642857 0.000000
vt 0.500000 0.000000
vt 0.571429 0.000000
vt 0.928571 0.000000
vt 0.857143 0.000000
vt 0.714286 0.000000
vt 1.000000 0.000000
vt 0.785714 0.000000
vt 0.000000 0.000000
vt 0.071429 0.000000
vt 0.428571 0.000000
vt 0.357143 0.000000
vt 0.142857 0.000000
vt 0.285714 0.000000
vt 0.214286 0.000000
vt 0.000000 1.000000
vt 0.090909 1.000000
vt 0.090909 0.000000
vt 0.000000 0.000000
vt 0.181818 1.000000
vt 0.181818 0.000000
vt 0.272727 1.000000
vt 0.272727 0.000000
vt 0.363636 1.000000
vt 0.363636 0.000000
vt 0.454545 1.000000
vt 0.454545 0.000000
vt 0.545455 1.000000
vt 0.545455 0.000000
vt 0.636364 1.000000
vt 0.636364 0.000000
vt 0.727273 1.000000
vt 0.727273 0.000000
vt 0.818182 1.000000
vt 0.818182 0.000000
vt 0.909091 1.000000
vt 0.909091 0.000000
vt 1.000000 1.000000
vt 1.000000 0.000000
vt 0.000000 1.000000
vt 0.250000 1.000000
vt 0.250000 0.000000
vt 0.000000 0.000000
vt 0.500000 1.000000
vt 0.500000 0.000000
vt 0.750000 1.000000
vt 0.750000 0.000000
vt 1.000000 1.000000
vt 1.000000 0.000000
vt 0.000000 1.000000
vt 0.250000 1.000000
vt 0.250000 0.000000
vt 0.000000 0.000000
vt 0.500000 1.000000
vt 0.500000 0.000000
vt 0.750000 1.000000
vt 0.750000 0.000000
vt 1.000000 1.000000
vt 1.000000 0.000000
vn 0.0000 -0.0000 1.0000
vn 0.0000 0.0000 -1.0000
vn 0.7071 0.7071 0.0000
vn 0.7071 -0.7071 0.0000
vn -0.7071 -0.7071 0.0000
vn -0.9418 0.3360 0.0000
vn -0.4284 0.9036 0.0000
vn -0.7071 0.7071 0.0000
vn 0.4321 -0.9018 0.0000
vn 0.9018 0.4321 0.0000
usemtl None
s off
f 1/1/1 3/2/1 2/3/1
f 1/1/1 4/4/1 3/2/1
f 12/5/1 14/6/1 13/7/1
f 12/5/1 18/8/1 14/6/1
f 18/8/1 17/9/1 14/6/1
f 17/9/1 15/10/1 14/6/1
f 12/5/1 19/11/1 18/8/1
f 16/12/1 15/10/1 17/9/1
f 12/5/1 16/12/1 19/11/1
f 12/5/1 15/10/1 16/12/1
f 12/5/1 5/13/1 15/10/1
f 12/5/1 6/14/1 5/13/1
f 11/15/1 6/14/1 12/5/1
f 10/16/1 6/14/1 11/15/1
f 9/17/1 7/18/1 10/16/1
f 7/18/1 6/14/1 10/16/1
f 9/17/1 8/19/1 7/18/1
f 22/20/2 20/21/2 21/22/2
f 23/23/2 20/21/2 22/20/2
f 33/24/2 31/25/2 32/26/2
f 37/27/2 31/25/2 33/24/2
f 36/28/2 37/27/2 33/24/2
f 34/29/2 36/28/2 33/24/2
f 38/30/2 31/25/2 37/27/2
f 34/29/2 35/31/2 36/28/2
f 35/31/2 31/25/2 38/30/2
f 34/29/2 31/25/2 35/31/2
f 24/32/2 31/25/2 34/29/2
f 25/33/2 31/25/2 24/32/2
f 25/33/2 30/34/2 31/25/2
f 25/33/1 29/35/1 30/34/1
f 26/36/2 28/37/2 29/35/2
f 25/33/1 26/36/1 29/35/1
f 27/38/2 28/37/2 26/36/2
s 1
f 40/39/3 42/40/4 41/41/4 39/42/3
f 42/40/4 44/43/4 43/44/4 41/41/4
f 44/43/4 46/45/4 45/46/4 43/44/4
f 46/45/4 48/47/5 47/48/5 45/46/4
f 48/47/5 50/49/5 49/50/5 47/48/5
f 50/49/5 52/51/5 51/52/5 49/50/5
f 52/51/5 54/53/6 53/54/6 51/52/5
f 54/53/6 56/55/7 55/56/7 53/54/6
f 56/55/7 58/57/3 57/58/3 55/56/7
f 58/57/3 60/59/3 59/60/3 57/58/3
f 60/59/3 40/61/3 39/62/3 59/60/3
f 62/63/8 64/64/5 63/65/5 61/66/8
f 64/64/5 66/67/9 65/68/9 63/65/5
f 66/67/9 68/69/10 67/70/10 65/68/9
f 68/69/10 62/71/8 61/72/8 67/70/10
f 70/73/5 72/74/8 71/75/8 69/76/5
f 72/74/8 74/77/3 73/78/3 71/75/8
f 74/77/3 76/79/4 75/80/4 73/78/3
f 76/79/4 70/81/5 69/82/5 75/80/4
